<svg preserveAspectRatio="none" overflow="visible" style="display: block;" width="25" height="25" viewBox="0 0 25 25" fill="none" xmlns="http://www.w3.org/2000/svg">
<g id="shield-check">
<path id="Vector" d="M9.37531 12.4995L11.4584 14.5829L15.6247 10.4161M20.8325 13.5417C20.8325 18.7502 17.187 21.3544 12.8541 22.8649C12.6272 22.9418 12.3808 22.9381 12.1563 22.8545C7.81297 21.3544 4.1675 18.7502 4.1675 13.5417V6.24977C4.1675 5.97349 4.27724 5.70853 4.47257 5.51318C4.6679 5.31782 4.93282 5.20807 5.20906 5.20807C7.29219 5.20807 9.89609 3.95803 11.7084 2.37464C11.9291 2.1861 12.2098 2.0825 12.5 2.0825C12.7902 2.0825 13.0709 2.1861 13.2916 2.37464C15.1143 3.96845 17.7078 5.20807 19.7909 5.20807C20.0672 5.20807 20.3321 5.31782 20.5274 5.51318C20.7228 5.70853 20.8325 5.97349 20.8325 6.24977V13.5417Z" stroke="white" stroke-width="1.8" stroke-linecap="round"/>
</g>
</svg>
